# xmcd CD database file
# Copyright (C) 1997 Ti Kan
#
# Track frame offsets:
#  150
#  14280
#  28352
#  43525
#  54260
#  68870
#  81510
#  96002
#  109440
#  128772
#  144617
#  158280
#
# Disc length: 2291 seconds
#
# Revision: 1
# Processed by: cddbd v1.4b41PL1 Copyright (c) Steve Scherf et al.
# Submitted via: CDWizzard Release:4.31
#
DISCID=9d08f10c
DTITLE=Cindy Church - Just a Little Rain
DYEAR=1900
DGENRE=
TTITLE0=Tryin to Rope the Wind
TTITLE1=Ste. Anne de Bellevue
TTITLE2=Fall in the Foothills
TTITLE3=Still a fool
TTITLE4=I Gotta Have My Baby Back
TTITLE5=Haunted Honky Tonk
TTITLE6=Never Got over you
TTITLE7=Tired of Having You Gone
TTITLE8=Warrior in These Days
TTITLE9=Sleeping Alone
TTITLE10=Radiates
TTITLE11=It's Just a Little Rain
EXTD=Canadian singer
EXTT0=
EXTT1=
EXTT2=
EXTT3=
EXTT4=
EXTT5=
EXTT6=
EXTT7=
EXTT8=
EXTT9=
EXTT10=
EXTT11=
PLAYORDER=
